# 3ds Max Wavefront OBJ Exporter v0.99 - (c)2007 guruware
# File Created: 26.11.2021 23:17:05

#
# object Cone001
#

v  -36.2408 -6.0090 31.3250
v  -39.5527 -6.4266 31.3211
v  -40.5322 -8.0169 31.3166
v  -40.6349 -9.4965 31.3520
v  -38.2784 -11.6072 31.3491
v  -35.1164 -11.5051 31.3520
v  -34.2440 -10.3057 31.3166
v  -33.9721 -8.4577 31.3211
v  -34.2064 -10.7920 25.2169
v  -35.5353 -11.4051 25.3627
v  -34.4236 -12.0022 9.1658
v  -32.0207 -9.9510 13.1603
v  -38.2770 -11.6035 25.3627
v  -38.5186 -12.2673 9.1658
v  -40.2498 -9.6892 25.3627
v  -41.4852 -9.4320 9.1658
v  -40.8736 -8.3653 25.2169
v  -42.0074 -6.3162 13.1603
v  -39.2835 -7.0344 25.2169
v  -39.6624 -4.4240 15.0327
v  -36.1431 -5.7407 25.2169
v  -35.1414 -2.9885 15.3038
v  -34.5690 -8.7503 25.2169
v  -32.6008 -6.9942 15.0327
v  -33.7162 -11.4048 -1.4179
v  -30.8977 -8.7691 3.5627
v  -38.2907 -11.6412 -6.0920
v  -41.6430 -8.5197 -1.4179
v  -42.1079 -4.6889 3.5627
v  -39.5319 -2.7195 6.4947
v  -34.7789 -1.9925 8.5902
v  -31.6051 -5.6046 6.4947
v  -29.4972 2.2421 -2.0588
v  -27.8919 2.3959 2.1580
v  -31.9979 5.6483 -5.0944
v  -36.1029 4.6464 -2.0588
v  -37.2338 5.7960 2.1580
v  -35.7866 5.5153 6.2047
v  -31.9979 5.6483 7.6798
v  -29.1810 3.1111 6.2047
v  -25.7949 14.4695 -1.4858
v  -24.7004 14.0712 1.9539
v  -28.4372 15.4312 -2.9105
v  -31.0794 16.3929 -1.4858
v  -32.1739 16.7913 1.9539
v  -31.0794 16.3929 5.3936
v  -28.4372 15.4312 6.8183
v  -25.7949 14.4695 5.3936
v  -32.9364 -10.8288 28.4696
v  -34.2729 -12.6665 28.5097
v  -32.5543 -8.2315 28.4696
v  -35.7818 -4.7479 28.4696
v  -40.4934 -5.3419 28.4696
v  -41.8702 -7.5772 28.4696
v  -42.0276 -9.8440 28.5097
v  -38.7161 -12.8099 28.5097
# 56 vertices

vn -0.0006 -0.0016 1.0000
vn 0.0039 0.0045 1.0000
vn 0.0161 0.0147 0.9998
vn 0.0039 0.0107 0.9999
vn -0.0029 0.0216 0.9998
vn -0.0001 0.0060 1.0000
vn -0.0005 -0.0016 1.0000
vn 0.8460 -0.5041 0.1738
vn 0.3180 -0.9455 0.0703
vn 0.4291 -0.9032 0.0083
vn 0.9121 -0.3886 0.1308
vn -0.3405 -0.9380 0.0653
vn -0.3440 -0.9390 -0.0028
vn -0.8621 -0.5044 0.0488
vn -0.9121 -0.4100 0.0030
vn -0.9814 0.1245 0.1459
vn -0.9522 0.2755 0.1317
vn -0.5680 0.7719 0.2856
vn -0.5622 0.7902 0.2440
vn 0.2968 0.8597 0.4156
vn 0.3077 0.8939 0.3260
vn 0.9385 0.2051 0.2778
vn 0.9422 0.2241 0.2492
vn 0.6083 -0.6895 -0.3932
vn 0.9238 -0.3772 -0.0653
vn -0.2154 -0.5983 -0.7718
vn -0.9128 -0.1467 -0.3812
vn -0.9527 0.2965 -0.0668
vn -0.6646 0.5848 0.4650
vn 0.1664 0.5208 0.8373
vn 0.9004 0.0211 0.4346
vn 0.7393 -0.2304 -0.6327
vn 0.9593 -0.2823 -0.0041
vn 0.0484 0.0668 -0.9966
vn -0.7238 0.3039 -0.6195
vn -0.9142 0.4051 -0.0117
vn -0.6156 0.2961 0.7303
vn 0.0215 0.0581 0.9981
vn 0.6718 -0.1691 0.7212
vn 0.6798 -0.1878 -0.7090
vn 0.9603 -0.2788 -0.0015
vn 0.0611 0.0872 -0.9943
vn -0.6467 0.3320 -0.6867
vn -0.9150 0.4033 -0.0044
vn -0.6378 0.3062 0.7067
vn 0.0237 0.0559 0.9982
vn 0.6823 -0.1810 0.7083
vn 0.3420 0.9397 -0.0000
vn 0.4743 -0.8527 -0.2189
vn 0.6814 -0.4582 -0.5707
vn 0.7724 0.0772 -0.6305
vn 0.8879 -0.1612 -0.4309
vn 0.8806 0.3616 -0.3063
vn 0.6153 0.4858 -0.6208
vn -0.3564 0.6797 -0.6411
vn -0.1880 0.9071 -0.3766
vn -0.6278 0.6435 -0.4379
vn -0.7029 0.4011 -0.5874
vn -0.7544 -0.3191 -0.5737
vn -0.9236 0.1018 -0.3696
vn -0.6604 -0.5879 -0.4672
vn -0.6168 -0.6009 -0.5085
vn 0.1237 -0.8453 -0.5198
vn 0.0881 -0.8752 -0.4756
vn 0.7207 -0.4684 0.5110
vn 0.7228 -0.4671 0.5093
vn 0.8469 -0.1537 0.5090
vn 0.8464 -0.1545 0.5097
vn 0.6765 0.5341 0.5071
vn 0.6765 0.5335 0.5077
vn -0.1748 0.8437 0.5076
vn -0.1754 0.8439 0.5070
vn -0.7473 0.4264 0.5096
vn -0.7481 0.4259 0.5089
vn -0.8539 0.1045 0.5098
vn -0.8528 0.1066 0.5112
vn -0.6149 -0.5991 0.5129
vn -0.6148 -0.5995 0.5124
vn 0.0860 -0.8544 0.5125
vn 0.0856 -0.8542 0.5129
# 80 vertex normals

vt 0.7661 0.2729 0.0000
vt 0.8013 0.2164 0.0000
vt 0.8432 0.2093 0.0000
vt 0.8759 0.2172 0.0000
vt 0.9027 0.2733 0.0000
vt 0.8755 0.3292 0.0000
vt 0.8428 0.3369 0.0000
vt 0.8009 0.3296 0.0000
vt 0.5132 0.6519 0.0000
vt 0.5393 0.6310 0.0000
vt 0.6677 0.8486 0.0000
vt 0.5784 0.8338 0.0000
vt 0.5869 0.5986 0.0000
vt 0.7306 0.8048 0.0000
vt 0.6338 0.5652 0.0000
vt 0.7935 0.7609 0.0000
vt 0.6624 0.5479 0.0000
vt 0.8105 0.6720 0.0000
vt 0.6966 0.5155 0.0000
vt 0.8379 0.6074 0.0000
vt 0.7442 0.4623 0.0000
vt 0.8981 0.5319 0.0000
vt 0.4045 0.6990 0.0000
vt 0.4709 0.6728 0.0000
vt 0.5083 0.8371 0.0000
vt 0.4166 0.8675 0.0000
vt 0.7465 0.9941 0.0000
vt 0.6290 0.9785 0.0000
vt 0.8660 0.9991 0.0000
vt 0.9028 0.8852 0.0000
vt 0.9288 0.7695 0.0000
vt 0.9515 0.6859 0.0000
vt 0.9887 0.5907 0.0000
vt 0.5426 0.9709 0.0000
vt 0.4405 0.9729 0.0000
vt 0.1485 0.5195 0.0000
vt 0.0566 0.4471 0.0000
vt 0.3771 0.3854 0.0000
vt 0.4046 0.4515 0.0000
vt 0.0005 0.3435 0.0000
vt 0.4176 0.2985 0.0000
vt 0.0332 0.2304 0.0000
vt 0.3595 0.2223 0.0000
vt 0.1075 0.1400 0.0000
vt 0.3723 0.1519 0.0000
vt 0.1718 0.0843 0.0000
vt 0.3785 0.0840 0.0000
vt 0.2293 0.0005 0.0000
vt 0.4156 0.0159 0.0000
vt 0.2972 0.6299 0.0000
vt 0.2232 0.5603 0.0000
vt 0.4252 0.5165 0.0000
vt 0.4760 0.5751 0.0000
vt 0.6638 0.3310 0.0000
vt 0.6741 0.3891 0.0000
vt 0.6551 0.2729 0.0000
vt 0.6512 0.2143 0.0000
vt 0.6488 0.1554 0.0000
vt 0.6494 0.0970 0.0000
vt 0.6534 0.0392 0.0000
vt 0.6871 0.4460 0.0000
vt 0.7033 0.5017 0.0000
vt 0.7547 0.0052 0.0000
vt 0.7927 0.0488 0.0000
vt 0.7887 0.1065 0.0000
vt 0.7451 0.1445 0.0000
vt 0.6874 0.1405 0.0000
vt 0.6970 0.0013 0.0000
vt 0.9033 0.4365 0.0000
vt 0.8736 0.4385 0.0000
vt 0.8490 0.3884 0.0000
vt 0.8989 0.3768 0.0000
vt 0.8353 0.4446 0.0000
vt 0.7900 0.4435 0.0000
vt 0.7805 0.3784 0.0000
vt 0.8393 0.3887 0.0000
vt 0.7018 0.3893 0.0000
vt 0.6739 0.3247 0.0000
vt 0.7137 0.2862 0.0000
vt 0.7632 0.3666 0.0000
vt 0.6742 0.2204 0.0000
vt 0.7025 0.1560 0.0000
vt 0.7637 0.1790 0.0000
vt 0.7138 0.2592 0.0000
vt 0.7911 0.1024 0.0000
vt 0.8363 0.1015 0.0000
vt 0.8400 0.1575 0.0000
vt 0.7812 0.1674 0.0000
vt 0.8748 0.1079 0.0000
vt 0.9045 0.1101 0.0000
vt 0.8996 0.1698 0.0000
vt 0.8498 0.1578 0.0000
vt 0.9772 0.1775 0.0000
vt 0.9995 0.2270 0.0000
vt 0.9547 0.2626 0.0000
vt 0.9171 0.1838 0.0000
vt 0.9992 0.3202 0.0000
vt 0.9766 0.3695 0.0000
vt 0.9165 0.3629 0.0000
vt 0.9546 0.2843 0.0000
# 100 texture coords

o Cone001
g Cone001
f 1/1/1 2/2/1 3/3/2 
f 3/3/2 4/4/3 5/5/4 
f 5/5/4 6/6/5 7/7/6 
f 3/3/2 5/5/4 7/7/6 
f 1/1/1 3/3/2 7/7/6 
f 8/8/7 1/1/1 7/7/6 
f 9/9/8 10/10/9 11/11/10 
f 11/11/10 12/12/11 9/9/8 
f 10/10/9 13/13/12 14/14/13 
f 14/14/13 11/11/10 10/10/9 
f 13/13/12 15/15/14 16/16/15 
f 16/16/15 14/14/13 13/13/12 
f 15/15/14 17/17/16 18/18/17 
f 18/18/17 16/16/15 15/15/14 
f 17/17/16 19/19/18 20/20/19 
f 20/20/19 18/18/17 17/17/16 
f 19/19/18 21/21/20 22/22/21 
f 22/22/21 20/20/19 19/19/18 
f 21/23/20 23/24/22 24/25/23 
f 24/25/23 22/26/21 21/23/20 
f 23/24/22 9/9/8 12/12/11 
f 12/12/11 24/25/23 23/24/22 
f 12/12/11 11/11/10 25/27/24 
f 25/27/24 26/28/25 12/12/11 
f 11/11/10 14/14/13 27/29/26 
f 27/29/26 25/27/24 11/11/10 
f 14/14/13 16/16/15 28/30/27 
f 28/30/27 27/29/26 14/14/13 
f 16/16/15 18/18/17 29/31/28 
f 29/31/28 28/30/27 16/16/15 
f 18/18/17 20/20/19 30/32/29 
f 30/32/29 29/31/28 18/18/17 
f 20/20/19 22/22/21 31/33/30 
f 31/33/30 30/32/29 20/20/19 
f 22/26/21 24/25/23 32/34/31 
f 32/34/31 31/35/30 22/26/21 
f 24/25/23 12/12/11 26/28/25 
f 26/28/25 32/34/31 24/25/23 
f 26/36/25 25/37/24 33/38/32 
f 33/38/32 34/39/33 26/36/25 
f 25/37/24 27/40/26 35/41/34 
f 35/41/34 33/38/32 25/37/24 
f 27/40/26 28/42/27 36/43/35 
f 36/43/35 35/41/34 27/40/26 
f 28/42/27 29/44/28 37/45/36 
f 37/45/36 36/43/35 28/42/27 
f 29/44/28 30/46/29 38/47/37 
f 38/47/37 37/45/36 29/44/28 
f 30/46/29 31/48/30 39/49/38 
f 39/49/38 38/47/37 30/46/29 
f 31/50/30 32/51/31 40/52/39 
f 40/52/39 39/53/38 31/50/30 
f 32/51/31 26/36/25 34/39/33 
f 34/39/33 40/52/39 32/51/31 
f 34/39/33 33/38/32 41/54/40 
f 41/54/40 42/55/41 34/39/33 
f 33/38/32 35/41/34 43/56/42 
f 43/56/42 41/54/40 33/38/32 
f 35/41/34 36/43/35 44/57/43 
f 44/57/43 43/56/42 35/41/34 
f 36/43/35 37/45/36 45/58/44 
f 45/58/44 44/57/43 36/43/35 
f 37/45/36 38/47/37 46/59/45 
f 46/59/45 45/58/44 37/45/36 
f 38/47/37 39/49/38 47/60/46 
f 47/60/46 46/59/45 38/47/37 
f 39/53/38 40/52/39 48/61/47 
f 48/61/47 47/62/46 39/53/38 
f 40/52/39 34/39/33 42/55/41 
f 42/55/41 48/61/47 40/52/39 
f 42/63/48 41/64/48 43/65/48 
f 43/65/48 44/66/48 45/67/48 
f 45/67/48 46/59/48 47/60/48 
f 43/65/48 45/67/48 47/60/48 
f 42/63/48 43/65/48 47/60/48 
f 48/68/48 42/63/48 47/60/48 
f 10/69/49 9/70/49 49/71/49 
f 49/71/50 50/72/50 10/69/50 
f 9/73/51 23/74/51 51/75/51 
f 51/75/52 49/76/52 9/73/52 
f 23/77/53 21/78/53 52/79/53 
f 52/79/54 51/80/54 23/77/54 
f 21/81/55 19/82/55 53/83/55 
f 53/83/56 52/84/56 21/81/56 
f 19/85/57 17/86/57 54/87/57 
f 54/87/58 53/88/58 19/85/58 
f 17/89/59 15/90/59 55/91/59 
f 55/91/60 54/92/60 17/89/60 
f 15/93/61 13/94/61 56/95/61 
f 56/95/62 55/96/62 15/93/62 
f 13/97/63 10/98/63 50/99/63 
f 50/99/64 56/100/64 13/97/64 
f 50/72/65 49/71/65 7/7/65 
f 7/7/66 6/6/66 50/72/66 
f 49/76/67 51/75/67 8/8/67 
f 8/8/68 7/7/68 49/76/68 
f 51/80/69 52/79/69 1/1/69 
f 1/1/70 8/8/70 51/80/70 
f 52/84/71 53/83/71 2/2/71 
f 2/2/72 1/1/72 52/84/72 
f 53/88/73 54/87/73 3/3/73 
f 3/3/74 2/2/74 53/88/74 
f 54/92/75 55/91/75 4/4/75 
f 4/4/76 3/3/76 54/92/76 
f 55/96/77 56/95/77 5/5/77 
f 5/5/78 4/4/78 55/96/78 
f 56/100/79 50/99/79 6/6/79 
f 6/6/80 5/5/80 56/100/80 
# 108 faces

