# 3ds Max Wavefront OBJ Exporter v0.99 - (c)2007 guruware
# File Created: 09.12.2021 01:14:45

#
# object Cylinder001
#

v  43.1678 -4.7705 13.3138
v  43.1678 -14.3685 0.0000
v  43.1678 -4.7705 -13.3138
v  43.1678 5.2507 -13.3138
v  43.1678 15.0190 -0.0000
v  43.1678 5.2507 13.3138
v  21.5546 6.2133 -13.3138
v  21.5546 15.9464 -0.0000
v  21.5546 -6.5702 -13.3138
v  21.5546 -14.3685 0.0000
v  21.5546 -6.5702 13.3138
v  21.5546 6.2133 13.3138
v  -0.0587 9.1192 -13.3138
v  -0.0587 18.7460 -0.0000
v  -0.0587 -3.6643 -13.3138
v  -0.0587 -14.3685 0.0000
v  -0.0587 -3.6643 13.3138
v  -0.0587 9.1192 13.3138
v  -21.6719 11.7594 -13.3138
v  -21.6719 18.9675 -0.0000
v  -21.6719 -8.7496 -13.3138
v  -21.6719 -14.3685 0.0000
v  -21.6719 -8.7496 13.3138
v  -21.6719 11.7594 13.3138
v  -43.2852 5.1760 -13.3138
v  -43.2852 17.3069 -0.0000
v  -43.2852 -5.1172 -13.3138
v  -43.2852 -14.3685 0.0000
v  -43.2852 -5.1172 13.3138
v  -43.2852 5.1760 13.3138
# 30 vertices

vn 1.0000 0.0000 0.0000
vn 1.0000 0.0000 -0.0000
vn 0.0433 0.9991 0.0004
vn 0.0197 0.4415 -0.8970
vn 0.0386 0.4413 -0.8965
vn 0.0881 0.9961 0.0008
vn 0.0155 -0.4525 -0.8916
vn 0.0080 -0.5086 -0.8610
vn 0.0249 -0.9995 -0.0188
vn -0.0072 -1.0000 0.0057
vn 0.0363 -0.4358 0.8993
vn -0.0267 -0.5134 0.8577
vn 0.0193 0.4418 0.8969
vn 0.0382 0.4419 0.8962
vn 0.0577 0.4539 -0.8892
vn 0.0855 0.9962 0.0137
vn -0.0067 -0.4114 -0.9114
vn 0.0162 -0.9998 -0.0121
vn 0.0330 -0.4019 0.9151
vn 0.0449 0.4658 0.8837
vn -0.0704 0.5445 -0.8358
vn -0.0475 0.9988 -0.0111
vn 0.0512 -0.5792 -0.8136
vn 0.0094 -0.9999 -0.0077
vn -0.0239 -0.5736 0.8188
vn -0.0107 0.5359 0.8442
vn -0.0651 0.3747 -0.9249
vn -0.1428 0.9885 -0.0498
vn -0.0709 -0.4220 -0.9038
vn -0.0514 -0.9979 0.0394
vn -0.0309 -0.4563 0.8893
vn -0.1020 0.3350 0.9367
vn -1.0000 0.0000 -0.0000
# 33 vertex normals

vt 0.0005 0.6477 0.0000
vt 0.0911 0.5732 0.0000
vt 0.1904 0.6355 0.0000
vt 0.1949 0.7072 0.0000
vt 0.1044 0.7828 0.0000
vt 0.0051 0.7192 0.0000
vt 0.1508 0.2113 0.0000
vt 0.1287 0.0959 0.0000
vt 0.2806 0.0704 0.0000
vt 0.3041 0.1872 0.0000
vt 0.3432 0.6142 0.0000
vt 0.3503 0.7044 0.0000
vt 0.1804 0.5181 0.0000
vt 0.3347 0.5056 0.0000
vt 0.1711 0.4004 0.0000
vt 0.3252 0.3970 0.0000
vt 0.1644 0.3283 0.0000
vt 0.3175 0.3062 0.0000
vt 0.4367 0.0484 0.0000
vt 0.4570 0.1626 0.0000
vt 0.4991 0.6172 0.0000
vt 0.5057 0.7100 0.0000
vt 0.4890 0.4935 0.0000
vt 0.4787 0.3704 0.0000
vt 0.4701 0.2781 0.0000
vt 0.5964 0.0358 0.0000
vt 0.6078 0.1419 0.0000
vt 0.6519 0.5790 0.0000
vt 0.6614 0.7228 0.0000
vt 0.6441 0.4811 0.0000
vt 0.6364 0.3840 0.0000
vt 0.6198 0.2447 0.0000
vt 0.7557 0.0005 0.0000
vt 0.7611 0.1300 0.0000
vt 0.8075 0.5865 0.0000
vt 0.8110 0.6610 0.0000
vt 0.7993 0.4668 0.0000
vt 0.7871 0.3457 0.0000
vt 0.7782 0.2635 0.0000
vt 0.9044 0.7472 0.0000
vt 0.9044 0.5209 0.0000
vt 0.9995 0.5870 0.0000
vt 0.9995 0.6605 0.0000
# 43 texture coords

o Cylinder001
g Cylinder001
f 1/1/1 2/2/1 3/3/2 
f 3/3/2 4/4/2 5/5/2 
f 1/1/1 3/3/2 5/5/2 
f 6/6/2 1/1/1 5/5/2 
f 5/7/3 4/8/4 7/9/5 
f 7/9/5 8/10/6 5/7/3 
f 4/4/4 3/3/7 9/11/8 
f 9/11/8 7/12/5 4/4/4 
f 3/3/7 2/13/9 10/14/10 
f 10/14/10 9/11/8 3/3/7 
f 2/13/9 1/15/11 11/16/12 
f 11/16/12 10/14/10 2/13/9 
f 1/15/11 6/17/13 12/18/14 
f 12/18/14 11/16/12 1/15/11 
f 6/17/13 5/7/3 8/10/6 
f 8/10/6 12/18/14 6/17/13 
f 8/10/6 7/9/5 13/19/15 
f 13/19/15 14/20/16 8/10/6 
f 7/12/5 9/11/8 15/21/17 
f 15/21/17 13/22/15 7/12/5 
f 9/11/8 10/14/10 16/23/18 
f 16/23/18 15/21/17 9/11/8 
f 10/14/10 11/16/12 17/24/19 
f 17/24/19 16/23/18 10/14/10 
f 11/16/12 12/18/14 18/25/20 
f 18/25/20 17/24/19 11/16/12 
f 12/18/14 8/10/6 14/20/16 
f 14/20/16 18/25/20 12/18/14 
f 14/20/16 13/19/15 19/26/21 
f 19/26/21 20/27/22 14/20/16 
f 13/22/15 15/21/17 21/28/23 
f 21/28/23 19/29/21 13/22/15 
f 15/21/17 16/23/18 22/30/24 
f 22/30/24 21/28/23 15/21/17 
f 16/23/18 17/24/19 23/31/25 
f 23/31/25 22/30/24 16/23/18 
f 17/24/19 18/25/20 24/32/26 
f 24/32/26 23/31/25 17/24/19 
f 18/25/20 14/20/16 20/27/22 
f 20/27/22 24/32/26 18/25/20 
f 20/27/22 19/26/21 25/33/27 
f 25/33/27 26/34/28 20/27/22 
f 19/29/21 21/28/23 27/35/29 
f 27/35/29 25/36/27 19/29/21 
f 21/28/23 22/30/24 28/37/30 
f 28/37/30 27/35/29 21/28/23 
f 22/30/24 23/31/25 29/38/31 
f 29/38/31 28/37/30 22/30/24 
f 23/31/25 24/32/26 30/39/32 
f 30/39/32 29/38/31 23/31/25 
f 24/32/26 20/27/22 26/34/28 
f 26/34/28 30/39/32 24/32/26 
f 26/40/33 25/36/33 27/35/33 
f 27/35/33 28/41/33 29/42/33 
f 26/40/33 27/35/33 29/42/33 
f 30/43/33 26/40/33 29/42/33 
# 56 faces

