# 3ds Max Wavefront OBJ Exporter v0.99 - (c)2007 guruware
# File Created: 24.11.2021 22:51:35

#
# object Cone001
#

v  -12.6527 20.0000 21.9151
v  -25.3054 20.0000 0.0000
v  -12.6527 20.0000 -21.9151
v  12.6527 20.0000 -21.9151
v  25.3054 20.0000 -0.0000
v  12.6527 20.0000 21.9151
v  0.0000 60.0000 -0.0000
v  3.0902 0.0000 9.5106
v  -3.0902 0.0000 9.5106
v  -8.0902 0.0000 5.8779
v  -10.0000 0.0000 0.0000
v  -8.0902 0.0000 -5.8779
v  -3.0902 0.0000 -9.5106
v  3.0902 0.0000 -9.5106
v  8.0902 0.0000 -5.8779
v  10.0000 0.0000 -0.0000
v  8.0902 0.0000 5.8778
v  8.0902 20.0000 -5.8779
v  10.0000 20.0000 -0.0000
v  3.0902 20.0000 -9.5106
v  -3.0902 20.0000 -9.5106
v  -8.0902 20.0000 -5.8779
v  -10.0000 20.0000 0.0000
v  -8.0902 20.0000 5.8779
v  -3.0902 20.0000 9.5106
v  3.0902 20.0000 9.5106
v  8.0902 20.0000 5.8778
# 27 vertices

vn 0.0000 -1.0000 -0.0000
vn 0.8451 0.5346 0.0000
vn 0.4225 0.5346 -0.7319
vn 0.7595 0.4805 -0.4385
vn 0.7595 0.4805 0.4385
vn -0.4225 0.5346 -0.7319
vn -0.0000 0.4805 -0.8770
vn -0.8451 0.5346 0.0000
vn -0.7595 0.4805 -0.4385
vn -0.4225 0.5346 0.7319
vn -0.7595 0.4805 0.4385
vn 0.4225 0.5346 0.7319
vn 0.0000 0.4805 0.8770
vn 1.0000 0.0000 -0.0000
vn 0.8090 0.0000 -0.5878
vn 0.3090 0.0000 -0.9511
vn -0.3090 0.0000 -0.9511
vn -0.8090 0.0000 -0.5878
vn -1.0000 0.0000 0.0000
vn -0.8090 0.0000 0.5878
vn -0.3090 0.0000 0.9511
vn 0.3090 0.0000 0.9511
vn 0.8090 0.0000 0.5878
# 23 vertex normals

vt 0.2491 0.3189 0.0000
vt 0.1277 0.7549 0.0000
vt -0.3105 0.8678 0.0000
vt -0.6274 0.5447 0.0000
vt -0.5060 0.1087 0.0000
vt -0.0678 -0.0041 0.0000
vt 1.0197 -0.0895 0.0000
vt 1.4486 0.0547 0.0000
vt 0.9742 0.7557 0.0000
vt 1.7420 0.3993 0.0000
vt 1.8158 0.8458 0.0000
vt 0.5777 0.0078 0.0000
vt 0.2300 0.6503 0.0000
vt 0.2652 0.8026 0.0000
vt 0.2041 0.9465 0.0000
vt 0.0701 1.0270 0.0000
vt -0.0856 1.0134 0.0000
vt -0.2036 0.9108 0.0000
vt -0.2388 0.7585 0.0000
vt -0.1777 0.6146 0.0000
vt -0.0437 0.5341 0.0000
vt 0.1120 0.5477 0.0000
vt 0.4485 0.3709 0.0000
vt 0.5097 0.2270 0.0000
vt 0.9752 0.4249 0.0000
vt 0.9141 0.5687 0.0000
vt 0.5708 0.0832 0.0000
vt 1.0364 0.2810 0.0000
vt 0.6319 -0.0607 0.0000
vt 1.0975 0.1371 0.0000
vt 0.6931 -0.2046 0.0000
vt 1.1586 -0.0067 0.0000
vt 0.7542 -0.3484 0.0000
vt 1.2198 -0.1506 0.0000
vt 0.8154 -0.4923 0.0000
vt 1.2809 -0.2945 0.0000
vt 0.7308 1.0003 0.0000
vt 0.6697 1.1442 0.0000
vt 0.3263 0.6587 0.0000
vt 0.7919 0.8564 0.0000
vt 0.3874 0.5148 0.0000
vt 0.8530 0.7126 0.0000
# 42 texture coords

o Cone001
g Cone001
f 1/1/1 2/2/1 3/3/1 
f 3/3/1 4/4/1 5/5/1 
f 1/1/1 3/3/1 5/5/1 
f 6/6/1 1/1/1 5/5/1 
f 5/7/2 4/8/3 7/9/4 
f 7/9/4 7/9/5 5/7/2 
f 4/8/3 3/10/6 7/9/7 
f 7/9/7 7/9/4 4/8/3 
f 3/10/6 2/11/8 7/9/9 
f 7/9/9 7/9/7 3/10/6 
f 2/2/8 1/1/10 7/9/11 
f 7/9/11 7/9/9 2/2/8 
f 1/1/10 6/12/12 7/9/13 
f 7/9/13 7/9/11 1/1/10 
f 6/12/12 5/7/2 7/9/5 
f 7/9/5 7/9/13 6/12/12 
f 7/9/14 7/9/14 7/9/14 
f 7/9/14 7/9/14 7/9/14 
f 7/9/14 7/9/14 7/9/14 
f 7/9/14 7/9/14 7/9/14 
f 8/13/1 9/14/1 10/15/1 
f 10/15/1 11/16/1 12/17/1 
f 12/17/1 13/18/1 14/19/1 
f 14/19/1 15/20/1 16/21/1 
f 12/17/1 14/19/1 16/21/1 
f 10/15/1 12/17/1 16/21/1 
f 8/13/1 10/15/1 16/21/1 
f 17/22/1 8/13/1 16/21/1 
f 16/23/14 15/24/15 18/25/15 
f 18/25/15 19/26/14 16/23/14 
f 15/24/15 14/27/16 20/28/16 
f 20/28/16 18/25/15 15/24/15 
f 14/27/16 13/29/17 21/30/17 
f 21/30/17 20/28/16 14/27/16 
f 13/29/17 12/31/18 22/32/18 
f 22/32/18 21/30/17 13/29/17 
f 12/31/18 11/33/19 23/34/19 
f 23/34/19 22/32/18 12/31/18 
f 11/33/19 10/35/20 24/36/20 
f 24/36/20 23/34/19 11/33/19 
f 10/15/20 9/14/21 25/37/21 
f 25/37/21 24/38/20 10/15/20 
f 9/14/21 8/39/22 26/40/22 
f 26/40/22 25/37/21 9/14/21 
f 8/39/22 17/41/23 27/42/23 
f 27/42/23 26/40/22 8/39/22 
f 17/41/23 16/23/14 19/26/14 
f 19/26/14 27/42/23 17/41/23 
# 48 faces

